<svg xmlns="http://www.w3.org/2000/svg" viewBox="0 0 398 53">
  <defs>
    <style>
      .cls-1{fill:#fff}
    </style>
  </defs>
  <g id="Layer_2" data-name="Layer 2">
    <g id="Layer_2-2" data-name="Layer 2">
      <path d="M6 7q-6 8-6 20t6 19a20 20 0 008 6V1a19 19 0 00-8 6zm23 26q0 8-6 8a6 6 0 01-2 0v12h1a20 20 0 0014-5q6-5 7-14zm8-27q-5-6-15-6h-1v12a6 6 0 016 2q2 2 2 8l14-1q-1-10-6-15zM58 1l13 26V1zm13 39L56 10v43h22zm7 0l6 13h7V40zM131 30q0 6-2 8a6 6 0 01-5 4q-7 0-7-12h-16q0 10 6 16 7 7 17 7a21 21 0 0017-7q5-6 6-16zm10-23q-7-7-17-7-11 0-17 8-6 7-6 17h16q0-13 7-13t7 13h16q0-11-6-18zM161 12v41h12V33zm30-11v15a79 79 0 001 14 74 74 0 00-5-10L176 1h-14l10 18 1 1 19 33h11V1zM256 13V1h-37v52h37V40h-22v-8h18V20h-18v-7zM272 1l13 25V1zm13 39v-1L270 9v44h22zm7 0l6 13h6V40zM316 43l-3 10h12l3-10zm28-42h-16l-8 29h11l4-14 4 14h14zm13 42h-15l2 10h16zM388 25a11 11 0 007-4 12 12 0 002-7 14 14 0 00-4-10q-4-4-11-4h-14l3 11h6c4 0 5 2 5 5a5 5 0 01-1 3 4 4 0 01-3 1h-5l3 11h1c3 0 4 1 5 2a5 5 0 011 3 5 5 0 01-1 3 4 4 0 01-3 2l3 11c6 0 10-2 12-4a17 17 0 004-11q0-9-10-12z"/>
      <path class="cls-1" d="M339 31h-8v-1h8v1zM341 42l1 1h-14v-1h13zM56 10V1h2l-2 9zM101 30l-1-3v-2zM147 25v5z"/>
    </g>
  </g>
</svg>
